<?xml version="1.0" encoding="utf-8"?>
<!-- Generator: Adobe Illustrator 21.1.0, SVG Export Plug-In . SVG Version: 6.00 Build 0)  -->
<svg version="1.1" id="Layer_1" xmlns="http://www.w3.org/2000/svg" xmlns:xlink="http://www.w3.org/1999/xlink" x="0px" y="0px"
	 viewBox="0 0 100 100" style="enable-background:new 0 0 100 100;" xml:space="preserve">
<path style="fill:#005492;" d="M0.2,50.1c0,27.5,22.4,49.9,49.9,49.9c8.7,0,17.3-2.3,24.8-6.6l0.3-0.2l15.4,4.4
	c1.9,0.6,4.1,0,5.5-1.4c1.4-1.4,2-3.6,1.4-5.5l-4.4-15.3l0.1-0.3c4.4-7.6,6.7-16.3,6.7-25c0-27.5-22.4-49.9-49.9-49.9
	S0.2,22.6,0.2,50.1z M4.1,50c0-25.4,20.6-46,46-46s46,20.6,46,46c0,8.5-2.3,16.9-6.7,24.1L89,74.8l4.9,17c0.2,0.6,0,1.3-0.4,1.7
	c-0.4,0.4-1.1,0.6-1.7,0.4l-17.1-4.8L74,89.5c-7.2,4.3-15.4,6.6-23.9,6.6C24.7,96.1,4.1,75.4,4.1,50z"/>
<path style="fill:#E3173E;" d="M74.4,63.9l-9.1-10.4c-0.5-0.6-1.4-0.7-2-0.1c0,0-7.4,6.5-7.5,6.6c0,0-0.3,0.2-0.6,0.3
	c-0.4,0-1-0.4-1.5-1l-12.3-14c0,0-0.4-0.4-0.4-0.9c0-0.4,0.4-0.8,0.7-1.1l7.1-6.3c0.6-0.5,0.7-1.4,0.1-2l-9.1-10.5
	c-0.5-0.6-1.5-0.6-2-0.1l-8.5,7.2c-4.9,4.3-4.4,11.5-1.2,16.3c0.4,0.6,10.1,15.9,21.6,24.7c2.8,2.2,5.7,3.3,8.3,3.4
	c3.3,0.2,6.1-0.8,7.9-2.5l8.5-7.5c0.3-0.3,0.5-0.6,0.5-1C74.8,64.5,74.7,64.2,74.4,63.9z M38.4,27.3l7.2,8.2l-3.5,3l-7.1-8.4
	L38.4,27.3z M63.8,71.2c-3.5,3-8.9,1.8-12.5-1c-11.2-8.4-20.8-23.7-20.9-23.9c-2.4-3.8-2.9-9.2,0.7-12.5l1.9-1.7l7.1,8.4l-0.4,0.3
	c-1.4,1.2-1.7,2.4-1.7,3.4c0,1.6,0.9,2.6,1.2,2.9l12.2,13.9c1.2,1.3,2.4,2,3.9,2c1.4,0,2.4-0.9,2.7-1.2l0.8-0.7l7,8.3L63.8,71.2z
	 M68,67.6l-7-8.3l3-2.7l7.2,8.2L68,67.6z"/>
</svg>
