<svg xmlns:dc="http://purl.org/dc/elements/1.1/" xmlns:cc="http://creativecommons.org/ns#" xmlns:rdf="http://www.w3.org/1999/02/22-rdf-syntax-ns#" xmlns:svg="http://www.w3.org/2000/svg" xmlns="http://www.w3.org/2000/svg" xml:space="preserve" id="svg2" version="1.1" viewBox="0 0 354.99 235.16"><metadata id="metadata8"><rdf:RDF><cc:Work rdf:about=""><dc:format>image/svg+xml</dc:format><dc:type rdf:resource="http://purl.org/dc/dcmitype/StillImage"/></cc:Work></rdf:RDF></metadata><defs id="defs6"><clipPath id="clipPath18" clipPathUnits="userSpaceOnUse"><path id="path16" d="M 0,190.491 H 280.486 V 0 H 0 Z"/></clipPath><linearGradient id="linearGradient40" spreadMethod="pad" gradientTransform="matrix(67.389114,77.522316,77.522316,-67.389114,107.71948,88.671387)" gradientUnits="userSpaceOnUse" y2="0" x2="1" y1="0" x1="0"><stop id="stop36" offset="0" style="stop-opacity:1;stop-color:#2b3986"/><stop id="stop38" offset="1" style="stop-opacity:1;stop-color:#0994dc"/></linearGradient><linearGradient id="linearGradient60" spreadMethod="pad" gradientTransform="matrix(174.96509,30.85107,30.85107,-174.96509,52.697754,43.301758)" gradientUnits="userSpaceOnUse" y2="0" x2="1" y1="0" x1="0"><stop id="stop56" offset="0" style="stop-opacity:1;stop-color:#2b3986"/><stop id="stop58" offset="1" style="stop-opacity:1;stop-color:#0994dc"/></linearGradient><clipPath id="clipPath70" clipPathUnits="userSpaceOnUse"><path id="path68" d="M 0,190.491 H 280.486 V 0 H 0 Z"/></clipPath></defs><g transform="matrix(1.3333333,0,0,-1.3333333,0,253.988)" id="g10"><g id="g12"><g clip-path="url(#clipPath18)" id="g14"><g transform="translate(140.3113,176.3691)" id="g20"><path id="path22" style="fill:#ffffff;fill-opacity:1;fill-rule:evenodd;stroke:none" d="m 0,0 v 0 h -0.137 z m -43.577,-75.506 h -0.136 z M 0.274,-9.318 v -41.248 c -0.274,0.137 -0.411,0.137 -0.548,0.137 -0.411,0 -8.358,-4.659 -9.455,-5.343 -0.822,-0.412 -8.359,-5.072 -9.182,-5.207 h -0.274 c -0.411,1.095 -0.136,21.924 -0.136,24.939 0,7.811 -0.138,15.622 0,23.433 v 0.822 l -0.138,0.411 c 0,0.137 0,0.137 -0.137,0 l 7.401,4.385 C -12.333,-7.264 -12.47,-7.4 -12.47,-7.674 v -40.837 c 0,-0.822 0.137,-0.822 0.822,-0.41 l 7.949,4.522 c 0.136,1.644 0,17.952 0,20.829 0,1.371 -1.097,0.822 -2.467,2.878 -3.563,5.343 0.685,11.374 5.481,11.374 z m -35.355,-31.656 c 0.274,-3.425 -0.136,-11.921 0,-16.17 v -12.058 c 0,-1.645 0.686,-1.508 1.919,-2.193 1.508,-0.959 3.426,-1.918 5.071,-2.877 l 10.277,-6.031 c 0.959,-0.547 4.384,-2.74 5.344,-2.602 0.275,1.781 -0.137,5.207 0,7.399 0.137,0.138 7.674,4.659 8.633,4.934 0.274,-0.823 0.274,-26.86 0,-27.819 l 3.837,-2.192 0.274,0.274 v 39.465 c -1.37,0.412 -1.781,-0.41 -3.425,-1.369 l -15.074,-8.634 c -1.507,-0.959 -1.919,-0.137 -4.385,1.234 -1.508,0.822 -2.878,1.643 -4.386,2.467 -1.781,1.096 -1.095,0.822 -1.095,5.618 -0.138,3.014 -0.274,18.499 0,20.418 2.192,1.507 4.384,4.11 3.563,8.221 -1.645,6.989 -11.786,7.263 -13.978,0.275 -0.549,-1.782 -0.274,-3.699 0.41,-5.207 0.823,-1.782 1.645,-2.33 3.015,-3.153 m 59.473,26.86 c 0.274,-0.138 0.548,-0.275 0.686,-0.412 z M 0.274,-50.566 v 41.248 c 5.345,0 9.456,-7.537 4.386,-12.607 -0.412,-0.274 -1.097,-0.686 -1.371,-1.096 v -21.242 c 0.411,-0.41 8.223,-4.932 8.496,-4.796 0.411,0.275 0.274,18.226 0.274,20.144 v 20.282 c 0,0.959 0,1.507 -0.411,1.918 l 8.496,-4.932 c -0.548,0.273 -0.959,0.41 -1.233,0.41 -0.274,-2.604 0.137,-9.319 0,-12.608 -0.274,-4.796 0.274,-35.628 -0.137,-37.134 -0.822,0 -8.359,4.521 -9.592,5.342 -1.645,0.96 -3.153,1.646 -4.66,2.605 -0.548,0.274 -3.015,1.918 -4.248,2.466 m 0,-49.743 21.515,12.333 21.788,12.47 v 25.214 25.078 L 25.214,-14.526 43.166,-24.94 c 0.548,-0.686 0.274,-3.563 0.274,-4.522 v -45.084 c 0,-1.097 -0.137,-0.96 -0.959,-1.371 L 6.441,-96.746 C 5.893,-97.02 5.345,-97.294 4.796,-97.568 4.522,-97.843 3.7,-98.527 3.427,-98.253 c -0.549,0.547 -0.138,12.059 -0.138,13.84 0,1.782 -0.274,13.155 0.138,13.703 0.136,0.274 8.358,-4.522 8.495,-4.796 l 0.137,-7.263 c 0.274,-0.136 0.548,-0.136 0.822,0 l 7.675,4.248 c 1.233,0.686 13.703,7.811 13.977,8.223 0.274,0.959 0.137,23.843 0.137,26.859 0,1.095 -0.411,2.055 0.411,2.74 2.192,1.781 3.563,3.699 3.151,6.988 -0.41,3.7 -3.562,6.304 -7.399,6.167 -3.7,0 -6.441,-2.878 -6.852,-6.578 -0.274,-2.056 0.548,-3.837 1.508,-5.07 1.781,-2.329 2.192,-0.411 2.192,-4.247 v -13.567 -6.852 c 0.137,-3.425 -0.274,-2.466 -2.603,-4.112 -1.371,-0.821 -2.878,-1.507 -4.249,-2.466 -2.329,-1.37 -2.192,-0.959 -4.385,0.412 -1.507,0.822 -3.014,1.644 -4.385,2.466 -1.37,0.822 -3.015,1.644 -4.248,2.467 l -6.44,3.699 c -0.412,0.275 -0.823,0.413 -1.097,0.548 z"/></g></g></g><g id="g24"><g id="g26"><g id="g32"><g id="g34"><path id="path42" style="fill:url(#linearGradient40);stroke:none" d="m 140.311,167.051 h 0.412 c 5.343,0 9.592,-7.538 4.385,-12.607 v 0 c -0.275,-0.274 -1.097,-0.686 -1.37,-1.097 v 0 -21.241 c 0.41,-0.41 8.222,-4.932 8.495,-4.796 v 0 c 0.549,0.275 0.275,18.226 0.275,20.144 v 0 20.283 c 0,1.096 0.137,1.506 -0.685,2.055 v 0 l -9.456,5.48 c -0.685,0.412 -1.233,0.823 -1.782,0.96 v 0 c -0.136,0.137 -0.136,0.137 -0.274,0.137 v 0 z m -1.369,8.633 -8.086,-4.66 c -1.506,-0.958 -2.878,-1.37 -2.878,-2.329 v 0 -40.836 c 0,-0.823 0.138,-0.823 0.823,-0.411 v 0 l 7.948,4.522 c 0.137,1.644 0,17.952 0,20.828 v 0 c 0,1.372 -1.097,0.823 -2.33,2.879 v 0 c -3.7,5.344 0.685,11.374 5.481,11.374 v 0 h 0.411 v 9.318 c -0.548,0 -0.822,-0.411 -1.369,-0.685 m 20.417,-23.159 c -0.137,-4.796 0.274,-35.629 -0.137,-37.135 v 0 c -0.822,0 -8.359,4.521 -9.592,5.342 v 0 c -1.645,0.961 -3.015,1.646 -4.659,2.605 v 0 c -0.548,0.41 -3.837,2.466 -4.66,2.604 v 0 -10.278 c 0.412,-0.137 0.823,-0.273 1.507,-0.685 v 0 l 6.442,-3.699 c 1.37,-0.824 2.877,-1.646 4.248,-2.467 v 0 c 1.507,-0.823 2.877,-1.645 4.385,-2.467 v 0 c 2.329,-1.371 2.055,-1.781 4.384,-0.411 v 0 c 1.372,0.959 2.879,1.644 4.248,2.466 v 0 c 2.33,1.645 2.742,0.686 2.605,4.111 v 0 6.852 13.567 c 0,3.837 -0.412,1.918 -2.193,4.247 v 0 c -0.96,1.233 -1.645,3.014 -1.507,5.07 v 0 c 0.41,3.701 3.151,6.578 6.851,6.578 v 0 c 3.836,0.137 7.126,-2.467 7.536,-6.167 v 0 c 0.275,-3.289 -1.095,-5.206 -3.288,-6.988 v 0 c -0.685,-0.684 -0.412,-1.645 -0.412,-2.74 v 0 c 0,-3.016 0.137,-25.899 -0.135,-26.859 v 0 c -0.275,-0.412 -12.745,-7.537 -13.978,-8.222 v 0 l -7.674,-4.248 c -0.274,-0.137 -0.548,-0.137 -0.822,0 v 0 l -0.138,7.262 c -0.137,0.274 -8.359,5.071 -8.496,4.796 v 0 c -0.41,-0.548 -0.136,-11.92 -0.136,-13.703 v 0 c 0,-1.781 -0.274,-13.293 0.136,-13.84 v 0 c 0.274,-0.274 1.097,0.411 1.508,0.684 v 0 c 0.411,0.275 0.959,0.549 1.507,0.823 v 0 l 36.177,20.829 c 0.686,0.411 0.822,0.274 0.822,1.371 v 0 45.084 c 0,0.959 0.274,3.836 -0.274,4.522 v 0 l -18.089,10.413 c -0.958,0.549 -5.206,3.29 -6.166,3.29 v 0 c -0.273,-2.604 0.137,-9.319 0,-12.607 m -44.398,9.317 c -4.523,-2.739 -10.69,-5.891 -15.074,-8.631 v 0 c -0.822,-0.549 -2.33,-1.234 -3.015,-1.782 v 0 c -0.548,-0.549 -0.274,-7.948 -0.274,-9.318 v 0 -28.504 c 0,-3.288 0.137,-6.576 0,-9.591 v 0 c 0,-2.056 -0.411,-3.015 0.959,-3.7 v 0 c 0.823,-0.412 2.056,-1.097 3.015,-1.645 v 0 c 2.056,-1.233 3.974,-2.331 6.029,-3.426 v 0 c 1.097,-0.548 2.056,-1.097 3.015,-1.781 v 0 c 3.837,-2.193 25.9,-15.073 27.133,-15.485 v 0 c 0.137,0.684 0.137,26.995 0,27.818 v 0 c -1.097,-0.275 -8.633,-4.796 -8.771,-4.934 v 0 c -0.137,-2.192 0.411,-5.618 0,-7.399 v 0 c -0.822,-0.138 -4.248,2.056 -5.344,2.602 v 0 l -10.277,6.031 c -1.644,0.959 -3.426,1.919 -5.071,2.877 v 0 c -1.233,0.685 -1.918,0.548 -1.918,2.193 v 0 12.059 c -0.137,4.249 0.274,12.744 0,16.169 v 0 c -1.233,0.823 -2.193,1.372 -3.015,3.153 v 0 c -0.684,1.507 -0.959,3.425 -0.41,5.207 v 0 c 2.192,6.988 12.333,6.713 13.977,-0.274 v 0 c 0.822,-4.112 -1.371,-6.714 -3.563,-8.222 v 0 c -0.137,-1.92 0,-17.403 0,-20.418 v 0 c 0,-4.796 -0.685,-4.522 1.096,-5.618 v 0 c 1.508,-0.823 2.877,-1.645 4.385,-2.467 v 0 c 2.467,-1.371 2.877,-2.192 4.386,-1.234 v 0 l 15.073,8.634 c 1.507,0.822 2.055,1.507 3.014,1.507 v 0 10.278 h -0.136 c -0.412,0 -8.359,-4.66 -9.456,-5.345 v 0 c -0.685,-0.411 -8.36,-5.07 -9.18,-5.206 v 0 h -0.275 c -0.274,1.095 0,21.925 0,24.939 v 0 c 0,7.812 -0.274,15.622 -0.138,23.432 v 0 0.823 l -0.136,0.411 c 0,0.042 -0.032,0.062 -0.092,0.062 v 0 c -0.72,0 -5.431,-2.834 -5.937,-3.215"/></g></g></g></g><g id="g44"><g id="g46"><g id="g52"><g id="g54"><path id="path62" style="fill:url(#linearGradient60);stroke:none" d="m 200.196,76.335 c 0,-2.33 2.055,-4.385 4.522,-4.385 v 0 c 2.466,0 4.522,2.055 4.522,4.385 v 0 c 0,2.465 -2.056,4.521 -4.522,4.521 v 0 c -2.467,0 -4.522,-2.056 -4.522,-4.521 m -92.636,0 c 0,-2.33 2.056,-4.385 4.522,-4.385 v 0 c 2.467,0 4.522,2.055 4.522,4.385 v 0 c 0,2.465 -2.055,4.521 -4.522,4.521 v 0 c -2.466,0 -4.522,-2.056 -4.522,-4.521 m 74,3.699 V 48.242 c 0,-6.304 3.424,-9.592 9.865,-9.592 v 0 c 3.288,0 5.07,1.233 5.07,4.522 v 0 1.644 h -2.055 c -3.564,0 -5.207,1.097 -5.207,4.112 v 0 25.899 c 0,2.877 -1.644,5.207 -5.481,5.207 v 0 z m -108.807,0 v -36.04 c 0,-3.151 1.645,-5.07 5.345,-5.07 v 0 h 2.466 v 17.403 c 0,5.481 3.152,7.263 5.482,7.263 v 0 c 3.426,0 6.166,-1.918 6.166,-6.988 v 0 -12.608 c 0,-3.289 2.057,-5.07 5.209,-5.07 v 0 h 2.466 v 17.952 c 0,8.769 -4.66,13.565 -12.607,13.565 v 0 c -2.878,0 -5.482,-2.329 -6.716,-4.111 v 0 8.771 c 0,2.878 -1.78,4.933 -5.343,4.933 v 0 z M 60.421,77.979 C 59.188,68.66 56.446,58.794 53.158,50.846 v 0 c -3.151,7.399 -5.207,13.841 -6.441,20.419 v 0 c -0.821,4.11 -3.563,5.205 -6.167,5.205 v 0 H 38.084 C 36.987,70.853 34.111,59.205 30.548,50.846 v 0 c -3.7,8.77 -5.345,16.033 -6.441,22.748 v 0 c -0.412,2.055 -1.918,4.385 -4.66,4.385 v 0 H 14.926 C 16.433,65.372 20.955,51.257 26.71,40.98 v 0 c 1.371,-2.33 3.153,-2.467 3.975,-2.467 v 0 h 1.781 c 4.111,6.715 7.263,15.622 9.182,24.118 v 0 C 43.429,54.41 46.58,46.049 49.459,40.98 v 0 c 1.233,-2.33 2.876,-2.467 3.699,-2.467 v 0 h 1.919 c 4.522,7.673 6.851,14.115 8.77,20.145 v 0 c 1.37,4.111 4.11,13.565 4.11,15.622 v 0 c 0,2.328 -1.644,3.699 -3.425,3.699 v 0 z m 192.807,-1.234 c -1.233,0 -2.605,-0.959 -3.7,-2.193 v 0 c -1.645,-1.918 -2.194,-3.014 -2.194,-6.029 v 0 -18.499 c 0,-7.263 3.838,-11.511 11.512,-11.511 v 0 c 4.522,0 6.714,2.055 6.714,5.206 v 0 2.742 h -0.273 c -1.097,-0.822 -3.015,-1.096 -5.481,-1.096 v 0 c -3.153,0 -4.935,1.507 -4.935,5.481 v 0 12.06 h 6.168 c 3.151,0 4.521,2.055 4.521,3.699 v 0 3.152 h -10.689 v 6.988 z m -120.727,0 c -1.233,0 -2.604,-0.959 -3.7,-2.193 v 0 c -1.645,-1.918 -2.193,-3.014 -2.193,-6.029 v 0 -18.499 c 0,-7.263 3.837,-11.511 11.51,-11.511 v 0 c 4.523,0 6.853,2.055 6.853,5.206 v 0 2.742 h -0.412 c -1.095,-0.822 -3.014,-1.096 -5.48,-1.096 v 0 c -3.016,0 -4.797,1.507 -4.797,5.481 v 0 12.06 h 6.029 c 3.153,0 4.66,2.055 4.66,3.699 v 0 3.152 h -10.689 v 6.988 z m 84.961,-16.992 c 0,-4.659 3.151,-7.263 9.729,-8.222 v 0 c 5.208,-0.685 6.303,-1.507 6.303,-3.289 v 0 c 0,-2.329 -1.782,-3.426 -5.618,-3.426 v 0 c -3.563,0 -7.536,1.37 -9.181,2.879 v 0 h -0.274 v -3.427 c 0,-3.151 4.248,-6.029 9.867,-6.029 v 0 c 8.221,0 12.881,3.837 12.881,10.415 v 0 c 0,4.796 -3.427,7.673 -9.867,8.632 v 0 c -5.207,0.959 -6.167,1.508 -6.167,3.015 v 0 c 0,2.056 1.508,3.426 6.167,3.426 v 0 c 3.7,0 7.126,-1.233 8.77,-2.739 v 0 h 0.274 v 2.876 c 0,2.878 -2.877,6.577 -9.729,6.577 v 0 c -7.948,0 -13.155,-4.932 -13.155,-10.688 M 162.1,70.304 v -6.302 h 0.274 c 3.563,0 5.893,-1.508 5.893,-4.66 v 0 c 0,-1.782 -1.234,-2.74 -6.167,-2.877 v 0 -5.483 c 9.319,0.138 13.292,2.056 13.292,7.538 v 0 c 0,7.263 -5.892,11.921 -12.333,11.921 v 0 c -0.274,0 -0.685,0 -0.959,-0.137 m -14.115,-16.58 c 0,-9.045 6.853,-14.937 14.115,-15.485 v 0 6.714 c -3.289,0.686 -5.618,2.878 -6.167,6.029 v 0 h 5.071 1.096 v 5.483 h -2.741 -3.426 v 0.959 c 0.275,3.426 2.605,6.44 6.167,6.578 v 0 6.302 c -8.222,-0.41 -14.115,-6.714 -14.115,-16.58 m 52.896,15.348 v -20.83 c 0,-6.304 3.288,-9.592 9.18,-9.592 v 0 c 3.289,0 4.66,1.233 4.66,4.522 v 0 1.644 h -1.507 c -3.289,0 -4.66,1.097 -4.66,4.112 v 0 14.387 c 0,3.839 -2.055,5.757 -5.481,5.757 v 0 z m -92.635,0 v -20.83 c 0,-6.304 3.288,-9.592 9.318,-9.592 v 0 c 3.151,0 4.523,1.233 4.523,4.522 v 0 1.644 h -1.508 c -3.288,0 -4.659,1.097 -4.659,4.112 v 0 14.387 c 0,3.839 -2.056,5.757 -5.482,5.757 v 0 z m 65.775,-21.514 c -2.466,-2.33 -6.166,-2.879 -9.454,-2.879 v 0 c -0.823,0 -1.645,0 -2.467,0.274 v 0 -6.714 h 1.096 c 8.497,0 11.1,3.015 11.1,6.989 v 0 2.33 z"/></g></g></g></g><g id="g64"><g clip-path="url(#clipPath70)" id="g66"><g transform="translate(34.9329,32.0723)" id="g72"><path id="path74" style="fill:#656263;fill-opacity:1;fill-rule:nonzero;stroke:none" d="M 0,0 V -2.741 C -1.507,-2.877 -2.604,-4.11 -2.741,-5.618 V -6.029 H -1.234 0 v -2.329 h -0.548 -2.193 c 0.274,-1.371 1.234,-2.33 2.741,-2.605 v -3.015 c -3.152,0.275 -6.167,2.878 -6.167,6.715 0,4.248 2.604,6.99 6.167,7.263 m -7.264,2.193 v 1.096 h -11.372 c -1.371,0 -2.056,-0.96 -2.056,-1.782 V 0.273 h 4.796 v -11.646 c 0,-1.508 0.959,-2.33 2.055,-2.33 h 1.371 V 0.273 h 3.152 c 1.095,0 2.054,1.097 2.054,1.92 m 55.089,-15.896 v 7.81 c 0,3.838 -2.604,5.893 -5.756,5.893 -4.248,0 -6.03,-2.877 -6.03,-5.756 v -5.755 c 0,-1.233 0.823,-2.192 2.33,-2.192 h 0.959 v 7.81 c 0,1.919 0.96,3.016 2.467,3.016 1.644,0 2.603,-1.097 2.603,-3.289 v -5.345 c 0,-1.233 0.96,-2.192 2.468,-2.192 z m -15.074,0 v 7.947 C 32.751,-2.055 30.832,0 27.269,0 26.036,0 24.94,-0.959 24.392,-1.781 v 3.837 c 0,1.233 -0.686,2.055 -2.33,2.055 h -0.959 v -15.484 c 0,-1.371 0.685,-2.33 2.192,-2.33 h 1.097 v 7.674 c 0,2.329 1.37,3.152 2.466,3.152 1.371,0 2.604,-0.96 2.604,-3.152 v -5.344 c 0,-1.508 0.822,-2.33 2.193,-2.33 z m -14.252,9.181 v 1.507 c 0,1.507 -1.507,2.878 -3.563,2.878 -4.659,0 -7.263,-3.289 -7.263,-7.126 0,-3.837 3.153,-6.578 6.852,-6.578 2.33,0 3.974,1.097 3.974,2.741 v 1.507 h -0.137 c -0.548,-0.547 -1.644,-1.233 -3.563,-1.233 -2.192,0 -3.699,1.645 -3.699,4.111 0,1.918 1.78,3.564 3.699,3.564 1.919,0 3.152,-0.686 3.563,-1.371 z M 0,-8.358 v 2.329 c 2.055,0.136 2.603,0.411 2.603,1.232 0,1.371 -0.959,2.056 -2.466,2.056 L 0,-2.741 V 0 h 0.411 c 2.74,0 5.344,-1.918 5.344,-5.207 0,-2.33 -1.781,-3.151 -5.755,-3.151 m 0,-5.62 v 3.015 C 0.273,-11.1 0.685,-11.1 1.096,-11.1 c 1.37,0 3.014,0.274 3.973,1.234 h 0.138 v -1.097 c 0,-1.644 -1.097,-3.015 -4.796,-3.015 z M 56.869,0 v -3.015 h -0.138 c -1.918,0 -2.877,-1.507 -2.877,-3.7 0,-2.603 0.822,-4.248 3.015,-4.248 v -3.015 h -0.138 c -4.11,0 -6.303,3.29 -6.303,6.715 0,3.975 2.193,7.263 6.441,7.263 m 15.622,-11.785 v 0.685 h -0.959 c -1.508,0 -2.194,0.412 -2.194,1.782 V 1.919 c 0,1.233 -0.684,2.192 -2.328,2.192 H 66.05 V -9.593 c 0,-2.74 1.37,-4.11 4.248,-4.11 1.37,0 2.193,0.549 2.193,1.918 m -15.622,-2.193 v 3.015 h 0.136 c 1.92,0 2.879,1.645 2.879,3.7 0,2.604 -0.959,4.248 -3.015,4.248 V 0 h 0.136 c 3.975,0 6.304,-3.151 6.304,-6.715 0,-3.973 -2.329,-7.126 -6.44,-7.263 M 79.753,0 v -3.015 h -0.136 c -1.919,0 -2.878,-1.507 -2.878,-3.7 0,-2.603 0.959,-4.248 3.014,-4.248 v -3.015 h -0.136 c -3.975,0 -6.304,3.29 -6.304,6.715 0,3.975 2.192,7.263 6.44,7.263 m 0,-13.978 v 3.015 h 0.137 c 1.919,0 2.878,1.645 2.878,3.7 0,2.604 -0.959,4.248 -3.015,4.248 V 0 h 0.137 c 4.111,0 6.304,-3.151 6.304,-6.715 0,-3.973 -2.193,-7.126 -6.441,-7.263 m 14.664,-0.959 v -3.014 h -0.275 c -2.74,0 -4.66,1.37 -4.66,2.877 v 1.508 h 0.138 c 0.821,-0.822 2.329,-1.371 4.248,-1.371 z m 0,14.937 v -2.877 c -1.508,-0.138 -2.741,-1.645 -2.741,-3.427 0,-1.781 1.095,-3.014 2.741,-3.014 v -2.877 h -0.549 c -3.289,0 -5.618,2.329 -5.618,5.343 0,3.701 2.329,6.579 6.167,6.852 m 15.758,-11.785 v 0.685 h -0.549 c -1.507,0 -2.055,0.412 -2.055,1.782 v 6.303 c 0,1.645 -0.959,2.467 -2.329,2.467 h -0.959 v -9.045 c 0,-2.74 1.37,-4.11 3.974,-4.11 1.369,0 1.918,0.549 1.918,1.918 m -2.33,14.389 c 0,1.096 -0.959,1.917 -1.918,1.917 -1.097,0 -1.918,-0.821 -1.918,-1.917 0,-1.097 0.821,-1.918 1.918,-1.918 0.959,0 1.918,0.821 1.918,1.918 M 94.417,-17.951 v 3.014 c 2.055,0.137 2.876,1.234 2.876,3.015 v 0.686 0.684 0.412 c -0.273,-0.96 -1.233,-1.782 -2.876,-2.055 v 2.877 c 1.643,0 2.74,1.233 2.74,3.289 0,2.055 -0.959,3.152 -2.467,3.152 H 94.417 V 0 h 0.684 c 3.289,0 5.482,-2.467 5.482,-5.756 v -2.329 -1.781 -1.781 c 0,-3.153 -2.056,-6.167 -6.166,-6.304 M 117.575,0 v -2.741 c -1.508,-0.136 -2.604,-1.369 -2.741,-2.877 v -0.411 h 1.508 1.233 v -2.329 h -0.548 -2.193 c 0.274,-1.371 1.233,-2.33 2.741,-2.605 v -3.015 c -3.152,0.275 -6.167,2.878 -6.167,6.715 0,4.248 2.604,6.99 6.167,7.263 m 78.109,-0.821 v -8.086 c 0,-3.015 1.644,-4.934 4.933,-4.934 1.919,0 3.015,0.96 3.015,2.33 v 1.097 h -0.137 c -0.548,-0.274 -1.37,-0.412 -2.466,-0.412 -1.371,0 -2.056,0.686 -2.056,2.33 v 5.208 h 2.603 c 1.371,0 2.056,0.959 2.056,1.643 v 1.372 h -4.659 v 3.014 h -0.822 c -0.548,0 -1.097,-0.412 -1.508,-0.96 -0.685,-0.821 -0.959,-1.233 -0.959,-2.602 m -2.056,-10.964 v 0.685 h -0.547 c -1.508,0 -2.056,0.412 -2.056,1.782 v 6.303 c 0,1.645 -0.96,2.467 -2.33,2.467 h -0.959 v -9.045 c 0,-2.74 1.37,-4.11 3.973,-4.11 1.372,0 1.919,0.549 1.919,1.918 m -2.329,14.389 c 0,1.096 -0.959,1.917 -1.918,1.917 -1.097,0 -1.92,-0.821 -1.92,-1.917 0,-1.097 0.823,-1.918 1.92,-1.918 0.959,0 1.918,0.821 1.918,1.918 m -7.263,-16.307 v 8.085 c 0,3.837 -2.466,5.618 -5.481,5.618 -1.645,0 -3.152,-0.821 -3.837,-2.055 -0.959,1.234 -2.33,2.055 -4.112,2.055 -3.973,0 -5.891,-2.467 -5.891,-6.029 v -5.207 c 0,-1.508 0.959,-2.467 2.328,-2.467 h 0.96 v 7.947 c 0,1.782 0.959,2.879 2.193,2.879 1.507,0 2.466,-0.96 2.466,-3.152 v -5.207 c 0,-1.508 0.959,-2.467 2.466,-2.467 h 0.96 v 7.947 c 0,1.919 0.822,2.879 2.193,2.879 1.507,0 2.467,-0.96 2.467,-3.152 v -5.207 c 0,-1.508 0.684,-2.467 2.466,-2.467 z m -21.241,1.918 v 0.685 h -0.547 c -1.508,0 -2.055,0.412 -2.055,1.782 v 6.303 c 0,1.645 -0.961,2.467 -2.33,2.467 h -0.959 v -9.045 c 0,-2.74 1.369,-4.11 3.973,-4.11 1.371,0 1.918,0.549 1.918,1.918 m -2.329,14.389 c 0,1.096 -0.959,1.917 -1.918,1.917 -1.097,0 -2.056,-0.821 -2.056,-1.917 0,-1.097 0.959,-1.918 2.056,-1.918 0.959,0 1.918,0.821 1.918,1.918 m -5.756,-13.977 v 1.233 c -0.684,-0.274 -1.918,-0.686 -3.562,-0.686 h -0.822 c -2.604,0 -3.152,0.96 -3.152,3.563 v 8.085 c 0,1.645 -0.685,2.467 -2.056,2.467 h -1.507 V -7.537 c 0,-3.974 2.193,-6.304 6.304,-6.304 h 1.233 c 2.878,0 3.562,0.96 3.562,2.468 m -19.183,1.918 c 0,2.192 -1.508,3.426 -4.249,3.837 -2.329,0.274 -2.741,0.549 -2.741,1.233 0,0.959 0.686,1.508 2.741,1.508 1.507,0 3.014,-0.549 3.701,-1.233 h 0.136 v 1.233 c 0,1.369 -1.233,2.877 -4.248,2.877 -3.426,0 -5.618,-2.055 -5.618,-4.659 0,-1.919 1.37,-3.153 4.111,-3.426 2.329,-0.411 2.878,-0.822 2.878,-1.508 0,-0.959 -0.822,-1.507 -2.467,-1.507 -1.645,0 -3.29,0.686 -3.975,1.234 h -0.136 v -1.507 c 0,-1.234 1.781,-2.605 4.248,-2.605 3.563,0 5.619,1.783 5.619,4.523 m -17.952,1.097 v 2.329 c 2.055,0.136 2.603,0.411 2.603,1.232 0,1.371 -0.959,2.056 -2.467,2.056 h -0.136 V 0 h 0.411 c 2.74,0 5.344,-1.918 5.344,-5.207 0,-2.33 -1.781,-3.151 -5.755,-3.151 m 0,-5.62 v 3.015 c 0.274,-0.137 0.685,-0.137 1.095,-0.137 1.372,0 3.015,0.274 3.976,1.234 h 0.136 v -1.097 c 0,-1.644 -1.097,-3.015 -4.796,-3.015 z M 211.032,0 v -2.741 c -1.508,-0.136 -2.604,-1.369 -2.604,-2.877 l -0.136,-0.411 h 1.507 1.233 v -2.329 h -0.548 -2.056 c 0.137,-1.371 1.233,-2.33 2.604,-2.605 v -3.015 c -3.152,0.275 -6.167,2.878 -6.167,6.715 0,4.248 2.604,6.99 6.167,7.263 m 0,-8.358 v 2.329 c 2.192,0.136 2.603,0.411 2.603,1.232 0,1.371 -0.959,2.056 -2.467,2.056 h -0.136 V 0 h 0.411 c 2.74,0 5.344,-1.918 5.344,-5.207 0,-2.33 -1.644,-3.151 -5.755,-3.151 m 0,-5.62 v 3.015 c 0.274,-0.137 0.685,-0.137 1.095,-0.137 1.372,0 3.016,0.274 4.112,1.234 h 0.137 v -1.097 c 0,-1.644 -1.233,-3.015 -4.933,-3.015 z M 225.009,0 v -2.741 h -0.274 c -1.644,0 -2.741,-1.644 -2.741,-3.837 0,-2.603 1.234,-4.385 3.015,-4.522 v -2.878 c -3.563,0 -6.303,3.152 -6.303,6.715 0,4.386 2.192,7.263 6.029,7.263 z m 0,-13.978 v 2.878 h 0.274 c 1.919,0 2.74,1.371 2.74,3.837 0,3.153 -1.369,4.386 -3.014,4.522 V 0 c 1.233,-0.137 2.604,-0.959 3.014,-2.055 v 6.166 h 1.097 c 1.507,0 2.192,-0.822 2.192,-2.192 v -9.456 c 0,-3.836 -1.781,-6.441 -6.303,-6.441"/></g></g></g></g></svg>